<svg xmlns="http://www.w3.org/2000/svg" viewBox="0 0 48 48" fill="none">
  <defs>
    <linearGradient id="lime" x1="8" y1="8" x2="40" y2="40">
      <stop stop-color="#E8FF6B"/>
      <stop offset=".5" stop-color="#BFFF00"/>
      <stop offset="1" stop-color="#7ACC00"/>
    </linearGradient>
  </defs>
  <rect x="1" y="1" width="46" height="46" rx="11" fill="#13161C" stroke="url(#lime)" stroke-width="1.5"/>
  <path d="M12 34L18 14h4l6 20h-3.5l-1.2-4.2H16.7L15.5 34H12zm5.2-7.2h3.6L16 18.8l-1.8 8z" fill="url(#lime)"/>
  <path d="M26 34V14h8.5c3.2 0 5.3 1.8 5.3 4.8 0 2.2-1.2 3.7-3.1 4.3L40 34h-3.8l-2.9-9.8H29v9.8H26zm3-12.5h5c1.4 0 2.2-.7 2.2-1.8s-.8-1.8-2.2-1.8h-5v3.6z" fill="url(#lime)"/>
  <path d="M8 38h32" stroke="url(#lime)" stroke-width="1.5" stroke-linecap="round" opacity=".4"/>
</svg>
