<svg xmlns="http://www.w3.org/2000/svg" viewBox="0 0 48 48" fill="none">
  <defs>
    <linearGradient id="g" x1="4" y1="4" x2="44" y2="44" gradientUnits="userSpaceOnUse">
      <stop stop-color="#FFF8E7"/>
      <stop offset=".35" stop-color="#F5D061"/>
      <stop offset=".7" stop-color="#D4AF37"/>
      <stop offset="1" stop-color="#8B6914"/>
    </linearGradient>
    <linearGradient id="shine" x1="0" y1="0" x2="0" y2="1">
      <stop offset="0" stop-color="#fff" stop-opacity=".12"/>
      <stop offset="1" stop-color="#fff" stop-opacity="0"/>
    </linearGradient>
  </defs>
  <rect x="1" y="1" width="46" height="46" rx="13" fill="#0A0A0C" stroke="url(#g)" stroke-width="1.5"/>
  <rect x="1" y="1" width="46" height="46" rx="13" fill="url(#shine)"/>
  <path d="M14 32V16h14v3.2H17.4v4.4H27v3.2H17.4V32H14z" fill="url(#g)"/>
  <path d="M28 28.5c0-2.2 1.6-3.5 4.8-4.2 2.2-.5 3-.9 3-1.8 0-.7-.6-1.1-1.6-1.1-1 0-1.7.4-2 1.2h-3.2c.5-2.4 2.5-3.7 5.3-3.7 3.1 0 5 1.5 5 3.9 0 2.3-1.5 3.5-4.6 4.2-2.3.5-3.1 1-3.1 1.9 0 .8.7 1.2 1.8 1.2 1.2 0 2-.5 2.3-1.4h3.2c-.4 2.5-2.6 3.9-5.6 3.9-3.2 0-5.3-1.6-5.3-4.2z" fill="url(#g)"/>
  <path d="M10 36h28" stroke="url(#g)" stroke-width="1.2" stroke-linecap="round" opacity=".5"/>
</svg>
