<svg xmlns="http://www.w3.org/2000/svg" viewBox="0 0 48 48" fill="none">
  <rect x="0.5" y="0.5" width="47" height="47" fill="#0a1628" stroke="rgba(255,255,255,0.15)" stroke-width="1"/>
  <path d="M12 34V14h4l6 20h-3.5l-1.2-4.2H16.7L15.5 34H12zm5.2-7.2h3.6L16 18.8l-1.8 8z" fill="#f5f5f3"/>
  <path d="M26 34V14h8.5c3.2 0 5.3 1.8 5.3 4.8 0 2.2-1.2 3.7-3.1 4.3L40 34h-3.8l-2.9-9.8H29v9.8H26zm3-12.5h5c1.4 0 2.2-.7 2.2-1.8s-.8-1.8-2.2-1.8h-5v3.6z" fill="#f5f5f3"/>
  <line x1="8" y1="42" x2="40" y2="42" stroke="#c4a35a" stroke-width="1"/>
</svg>
